<?xml version="1.0" ?><!DOCTYPE svg  PUBLIC '-//W3C//DTD SVG 1.1//EN'  'http://www.w3.org/Graphics/SVG/1.1/DTD/svg11.dtd'><svg enable-background="new 0 0 512 512" height="512px" id="Calque_1" version="1.1" viewBox="0 0 512 512" width="512px" xml:space="preserve" xmlns="http://www.w3.org/2000/svg" xmlns:xlink="http://www.w3.org/1999/xlink"><g><path d="M378.791,42.453H132.208L8.917,256l123.291,213.548h246.583L502.083,256L378.791,42.453z M361.471,439.548   H149.529L43.558,256L149.529,72.453h211.942L467.442,256L361.471,439.548z" fill="#BD92C2"/><polygon fill="#1C0E1F" points="361.699,72.058 149.301,72.058 43.102,256 149.301,439.942 361.699,439.942 467.898,256  "/><g><path d="M261.105,290.413c-1.43,19.749-8.72,35.295-21.87,46.64c-13.153,11.345-30.485,17.018-51.997,17.018    c-23.531,0-42.039-7.92-55.526-23.762c-13.488-15.839-20.231-37.583-20.231-65.232v-11.219c0-17.647,3.108-33.193,9.328-46.64    c6.218-13.444,15.105-23.761,26.66-30.946c11.554-7.185,24.979-10.777,40.274-10.777c21.177,0,38.235,5.672,51.178,17.017    c12.94,11.345,20.42,27.271,22.437,47.774h-37.816c-0.925-11.849-4.223-20.44-9.895-25.778    c-5.672-5.336-14.307-8.004-25.904-8.004c-12.605,0-22.04,4.518-28.299,13.55c-6.261,9.035-9.476,23.048-9.643,42.039v13.866    c0,19.833,3.004,34.329,9.013,43.488c6.007,9.16,15.483,13.739,28.425,13.739c11.68,0,20.399-2.667,26.156-8.004    c5.755-5.336,9.054-13.592,9.895-24.77H261.105z" fill="#BF92C2"/><path d="M319.09,230.033c9.663-11.597,21.808-17.395,36.43-17.395c29.579,0,44.579,17.187,45.001,51.556v87.354    h-36.43v-86.546c0-7.833-1.682-13.623-5.042-17.371c-3.362-3.749-8.95-5.624-16.766-5.624c-10.673,0-18.403,4.128-23.193,12.381    v97.159h-36.43V157.931h36.43V230.033z" fill="#BF92C2"/></g></g></svg>